<?xml version="1.0" encoding="UTF-8" standalone="no"?>
<!-- Generator: Adobe Illustrator 16.0.0, SVG Export Plug-In . SVG Version: 6.00 Build 0)  -->

<svg
   xmlns:dc="http://purl.org/dc/elements/1.1/"
   xmlns:cc="http://creativecommons.org/ns#"
   xmlns:rdf="http://www.w3.org/1999/02/22-rdf-syntax-ns#"
   xmlns:svg="http://www.w3.org/2000/svg"
   xmlns="http://www.w3.org/2000/svg"
   xmlns:sodipodi="http://sodipodi.sourceforge.net/DTD/sodipodi-0.dtd"
   xmlns:inkscape="http://www.inkscape.org/namespaces/inkscape"
   version="1.1"
   id="Ebene_1"
   x="0px"
   y="0px"
   width="161.575px"
   height="235.275px"
   viewBox="0 0 161.575 235.275"
   enable-background="new 0 0 161.575 235.275"
   xml:space="preserve"
   inkscape:version="0.91 r13725"
   sodipodi:docname="highline-marker.svg"><metadata
     id="metadata44"><rdf:RDF><cc:Work
         rdf:about=""><dc:format>image/svg+xml</dc:format><dc:type
           rdf:resource="http://purl.org/dc/dcmitype/StillImage" /></cc:Work></rdf:RDF></metadata><defs
     id="defs42" /><sodipodi:namedview
     pagecolor="#ffffff"
     bordercolor="#666666"
     borderopacity="1"
     objecttolerance="10"
     gridtolerance="10"
     guidetolerance="10"
     inkscape:pageopacity="0"
     inkscape:pageshadow="2"
     inkscape:window-width="1680"
     inkscape:window-height="1001"
     id="namedview40"
     showgrid="false"
     inkscape:zoom="1.0030815"
     inkscape:cx="80.787498"
     inkscape:cy="117.6375"
     inkscape:window-x="0"
     inkscape:window-y="27"
     inkscape:window-maximized="1"
     inkscape:current-layer="Ebene_1" /><g
     opacity="0.3"
     id="g3"
     style="opacity:1"><polygon
       fill="#64ADE6"
       points="80.694,221.457 6.6,100.778 23.906,36.029 81.454,12.11 134.66,32.481 157.374,100.778  "
       id="polygon5"
       style="" /><g
       id="shadow_x5F_logo_2_"
       style=""><path
         fill="#C6C6C5"
         d="M54.877,170.158h-14.35c0.587,0.957,1.16,1.897,1.712,2.813c0.579,0.965,1.195,1.985,1.825,3.02H58.43    C57.191,173.965,56.001,172.014,54.877,170.158z"
         id="path8"
         style="" /></g><path
       fill="#FFFFFF"
       d="M124.481,164.334h-14.31l-3.546,5.792h14.208C120.834,170.126,124.087,164.854,124.481,164.334z"
       id="path10"
       style="" /><polygon
       fill="#FFFFFF"
       points="37.608,164.334 43.444,170.126 102.922,170.126 106.626,164.334  "
       id="polygon12"
       style="" /><path
       fill-rule="evenodd"
       clip-rule="evenodd"
       fill="#FFFFFF"
       d="M61.453,38.019c3.642-3.709,6.711-1.487,10.345,0.65   c4.451,2.688,11.232,0.395,16.267,2.223c4.889,1.86,3.351,10.394,3.262,14.575c-0.039,2.018,1.718,4.396-0.013,5.949   c-2.145,1.988-0.35,5.202,0.347,7.419c1.864,5.911,3.96,11.578,5.368,17.614c1.351,5.791,1.743,11.918,4.152,17.423   c2.052,4.685,2.367,8.741,3.72,13.802c1.493,5.607,3.38,10.795,3.5,16.652c0.116,5.585,0.272,8.403-3.206,12.81   c-1.756-0.87-2.14-1.394-4.042-2.259c-2.01-0.92-5.69,3.633-9.631,7.186c-2.186,1.971-5.135,2.863-7.67,4.356   c-4.083,2.399-3.35,1.831-2.25,6.006c0.98,3.764-0.389,3.143-5.692,2.937c-6.13-0.236-3.729-5.013-2.585-9.631   c0.625-2.553,2.08-4.348,2.036-7.145c-0.06-2.991,0.303-5.986,1.092-8.868c1.515-5.494,5.721-11.017,3.704-16.993   c-0.767-2.276-2.087-4.461-2.914-6.747c-0.757-2.099-1.125-6.972-3.559-5.615c0.184-2.525,0.427-4.315,1.125-6.759   c1.049-3.684-1.006-3.393-2.029-5.93c-3.155-7.861-6.53,1.191-8.601,4.398c-0.646,1.001-2.236,0.882-2.72,1.752   c-0.565,1.016-0.122,5.246-0.02,6.473c0.387,4.397,4.56,9.503,6.814,13.098c-2.004,0.504-2.406-0.789-3.22-2.209   c-1.306,1.518,0.079,3.502-0.457,5.212c-0.779-1.33-1.082-1.903-1.482-3.493c-1.211,1.514,0.53,3.261-1.021,4.785   c-0.079-0.309-0.511-2.818-0.931-2.818c-0.054,0.877-0.11,1.765-0.168,2.652c-1.076,0.317-1.476-0.439-1.216-2.269   c-0.232,0.585-0.609,0.775-1.114,0.559c0.156-2.386,0.751-5.104,0.648-7.474c-0.092-1.941-2.449-4.489-3.453-6.08   c-2.544-4.044-2.025-8.312-1.127-12.773c1.887-9.35,7.89-18.521,12.357-26.796c0.111,0.4,0.233,0.801,0.357,1.201   c0.092-1.563,0.195-3.132,0.311-4.706c-0.557-0.037-0.944,1.721-1.089,2.083c-0.012-0.774-0.025-1.542-0.049-2.315   c-0.66,0.725-1.325,1.449-1.985,2.186c0.276-0.811,0.563-1.617,0.844-2.428c-0.773-0.531-1.309,0.01-1.601,1.627   c-0.325-1.4-1.125-3.531-1.385-6.132c-1.441,3.678-2.534-2.45-1.357-3.581c1.72-1.563,2.258-6.051,3.646-8.246   c4.488-7.101,14.42-2.948,16.516,3.563c1.472-2.157,1.73-3.505,1.849-6.192c0.146-3.31-3.969-4.1-6.803-5.251   c-1.952-0.79-4.778-2.055-6.609-0.233c-1.33,1.293-7.203-0.064-8.915-0.183c0.901-2.374,2.366-1.265,4.177-1.73   c-0.919-2.044-2.968-1.942-4.624-0.866C59.663,39.868,60.276,39.209,61.453,38.019C63.178,36.261,59.825,39.674,61.453,38.019z    M89.116,133.107c-2.201,1.162-2.29,6.322-3.236,8.421c-1.649,3.671-4.099,6.987-5.954,10.578   c0.692,0.415,8.987-9.61,10.695-10.914c5.063-3.895,4.035-7.507,4.442-13.596C94.896,127.58,90.537,132.345,89.116,133.107   C88.428,133.47,91.522,131.816,89.116,133.107z"
       id="path14"
       style="" /><path
       fill="#FFFFFF"
       d="M80.813,5.944c-0.04,0-0.079,0-0.129,0c-0.021,0-0.065,0-0.11,0c-43.261,0-78.327,34.979-78.327,78.156   c0,11.805,2.566,21.465,5.126,27.824c0.892,2.292,1.874,4.58,2.961,6.765c8.13,17.294,21.218,36.841,30.192,51.469h14.35   c-0.735-1.211-1.455-2.397-2.125-3.516c-2.493-4.139-5.348-8.68-8.377-13.493c-7.938-12.621-16.942-26.932-22.935-39.684   l-0.06-0.125l-0.059-0.119c-0.841-1.688-1.664-3.568-2.515-5.753l-0.025-0.061l-0.024-0.058c-1.585-3.938-4.24-12.189-4.24-23.25   c0-36.326,29.632-65.885,66.056-65.885h0.11h0.129c36.422,0,66.056,29.559,66.056,65.885c0,11.031-2.651,19.316-4.231,23.275   l-0.015,0.039l-0.019,0.042c-0.844,2.158-1.673,4.05-2.532,5.792l-0.052,0.104l-0.053,0.108   c-6.002,12.746-15.003,27.055-22.944,39.678c-3.03,4.813-5.889,9.362-8.377,13.5c-7.548,12.513-19.374,31.618-27.952,45.42   c-6.625-10.659-15.218-24.535-22.265-36.067H44.063c12.636,20.851,34.003,55.049,36.62,59.284   c2.778-4.446,26.185-41.928,38.473-62.304c8.949-14.874,23.237-35.857,31.916-54.282c1.077-2.185,2.055-4.449,2.961-6.765   c2.541-6.359,5.105-16.02,5.105-27.824C159.139,40.923,124.082,5.944,80.813,5.944z"
       id="path16"
       style="" /><path
       fill-rule="evenodd"
       clip-rule="evenodd"
       fill="#FFFFFF"
       d="M94.69,53.921c0-7.604,6.057-13.76,13.533-13.76   c3.32,0,6.318,1.263,8.68,3.277c3.225-5.703,9.21-9.585,16.141-9.585c9.138,0,16.72,6.67,18.354,15.474   c0.804-0.133,1.623-0.254,2.468-0.254c8.793,0,15.92,7.244,15.92,16.184c0,8.193-6.013,14.898-13.791,15.965v0.218h-44.588v-0.303   c-7.376-1.405-12.97-7.972-12.97-15.88c0-0.576,0.107-1.109,0.166-1.663C96.184,61.106,94.69,57.687,94.69,53.921z"
       id="path18"
       style="" /><path
       fill="none"
       d="M125.836,35.954c-2.878,1.489-5.356,3.769-7.033,6.689l-1.131,1.961l-1.734-1.455   c-2.198-1.847-4.817-2.823-7.573-2.823c-6.517,0-11.818,5.302-11.818,11.822c0,3.129,1.213,6.079,3.42,8.307l0.634,0.641   l-0.172,1.474c-0.041,0.287-0.086,0.576-0.086,0.876c0,6.834,4.878,12.709,11.595,13.972l1.425,0.268h33.189   C144.953,61.273,137.29,46.615,125.836,35.954z"
       id="path20"
       style="" /><path
       fill="none"
       d="M168.844,63.444c0-8.561-7.454-15.438-16.435-14.003l-1.282,0.208c4.127,8.365,6.79,17.578,7.674,27.305   C164.655,75.145,168.844,69.707,168.844,63.444z"
       id="path22"
       style="" /><path
       fill="none"
       d="M150.243,47.921c-0.812-4.315-3.242-7.954-6.553-10.439c2.451,3.287,4.638,6.783,6.553,10.442V47.921z"
       id="path24"
       style="" /><path
       fill="#FFFFFF"
       d="M138.104,30.821C123.806,15.522,103.439,5.944,80.813,5.944c-0.04,0-0.079,0-0.129,0   c-0.021,0-0.065,0-0.11,0c-43.261,0-78.327,34.979-78.327,78.156c0,11.805,2.566,21.465,5.126,27.824   c0.892,2.292,1.874,4.58,2.961,6.765c8.13,17.294,21.218,36.841,30.192,51.469h14.35c-0.735-1.211-1.455-2.397-2.125-3.516   c-2.493-4.139-5.348-8.68-8.377-13.493c-7.938-12.621-16.942-26.932-22.935-39.684l-0.06-0.125l-0.059-0.119   c-0.841-1.688-1.664-3.568-2.515-5.753l-0.025-0.061l-0.024-0.058c-1.585-3.938-4.24-12.189-4.24-23.25   c0-36.326,29.632-65.885,66.056-65.885h0.11h0.129c15.946,0,30.586,5.665,42.015,15.082c3.189-1.941,6.866-3.053,10.687-3.053   C135.092,30.245,136.615,30.483,138.104,30.821z"
       id="path26"
       style="" /><path
       fill="#FFFFFF"
       d="M125.836,35.954c11.454,10.662,19.117,25.32,20.715,41.73h8.462l1.498-0.202   c0.79-0.105,1.55-0.298,2.29-0.527c-0.884-9.727-3.547-18.939-7.674-27.305l-0.543,0.086l-0.341-1.812   c-1.915-3.659-4.102-7.155-6.553-10.442c-2.867-2.15-6.383-3.445-10.176-3.445C130.803,34.037,128.188,34.734,125.836,35.954z"
       id="path28"
       style="" /><path
       fill="#FFFFFF"
       d="M158.661,81.257l-1.895,0.219h-9.965c0.035,0.873,0.067,1.743,0.067,2.625   c0,11.031-2.651,19.316-4.231,23.275l-0.015,0.039l-0.019,0.042c-0.844,2.158-1.673,4.05-2.532,5.792l-0.052,0.104l-0.053,0.108   c-6.002,12.746-15.003,27.055-22.944,39.678c-3.03,4.813-5.889,9.362-8.377,13.5c-7.548,12.513-19.374,31.618-27.952,45.42   c-6.625-10.659-15.218-24.535-22.265-36.067H44.063c12.636,20.851,34.003,55.049,36.62,59.284   c2.778-4.446,26.185-41.928,38.473-62.304c8.949-14.874,23.237-35.857,31.916-54.282c1.077-2.185,2.055-4.449,2.961-6.765   c2.541-6.359,5.105-16.02,5.105-27.824c0-1.104-0.037-2.195-0.082-3.289c-0.135,0.036-0.256,0.096-0.396,0.129V81.257z"
       id="path30"
       style="" /><path
       fill="#64ADE6"
       d="M113.361,77.684l-1.425-0.268c-6.717-1.263-11.595-7.138-11.595-13.972c0-0.3,0.045-0.589,0.086-0.876   l0.172-1.474l-0.634-0.641c-2.207-2.228-3.42-5.178-3.42-8.307c0-6.52,5.302-11.822,11.818-11.822c2.756,0,5.375,0.976,7.573,2.823   l1.734,1.455l1.131-1.961c1.677-2.92,4.155-5.2,7.033-6.689c-0.979-0.911-1.976-1.803-3.008-2.656   c-2.385,1.452-4.505,3.356-6.17,5.679c-2.504-1.604-5.337-2.442-8.294-2.442c-8.606,0-15.609,7.003-15.609,15.613   c0,3.815,1.364,7.431,3.867,10.278c-0.042,0.335-0.071,0.673-0.071,1.019c0,8.123,5.438,15.178,13.142,17.338v0.693h37.109   c-0.05-1.273-0.13-2.537-0.251-3.792H113.361z"
       id="path32"
       style="" /><path
       fill="#64ADE6"
       d="M133.515,34.037c3.793,0,7.309,1.295,10.176,3.445c-1.736-2.326-3.609-4.543-5.587-6.66   c-1.488-0.338-3.012-0.576-4.589-0.576c-3.82,0-7.497,1.111-10.687,3.053c1.032,0.853,2.028,1.745,3.008,2.656   C128.188,34.734,130.803,34.037,133.515,34.037z"
       id="path34"
       style="" /><path
       fill-rule="evenodd"
       clip-rule="evenodd"
       fill="#FFFFFF"
       stroke="#64ADE6"
       stroke-width="3.534"
       stroke-miterlimit="10"
       d="   M161.413,70.167c0-5.227-4.235-9.465-9.462-9.465c-2.321,0-4.413,0.872-6.061,2.256c-2.257-3.92-6.438-6.59-11.284-6.59   c-6.384,0-11.681,4.584-12.82,10.643c-0.564-0.094-1.135-0.178-1.721-0.178c-6.15,0-11.131,4.983-11.131,11.124   c0,5.641,4.201,10.245,9.64,10.976v0.154l31.155-0.209c5.155-0.971,9.064-5.479,9.064-10.921c0-0.39-0.076-0.765-0.118-1.144   C160.367,75.104,161.413,72.757,161.413,70.167z"
       id="path36"
       style="" /><path
       fill-rule="evenodd"
       clip-rule="evenodd"
       fill="#FFFFFF"
       stroke="#64ADE6"
       stroke-width="2.7689"
       stroke-miterlimit="10"
       d="   M43.363,66.671c0-4.094-3.318-7.414-7.412-7.414c-1.819,0-3.461,0.682-4.751,1.769c-1.768-3.072-5.042-5.166-8.839-5.166   c-5.002,0-9.152,3.595-10.044,8.337c-0.443-0.07-0.89-0.139-1.353-0.139c-4.816,0-8.718,3.906-8.718,8.719   c0,4.416,3.293,8.025,7.552,8.599v0.118H34.21v-0.162c4.039-0.76,7.101-4.294,7.101-8.555c0-0.309-0.06-0.6-0.092-0.898   C42.544,70.54,43.363,68.702,43.363,66.671z"
       id="path38"
       style="" /></g></svg>