<?xml version="1.0" encoding="utf-8"?>
<!-- Generator: Adobe Illustrator 16.0.0, SVG Export Plug-In . SVG Version: 6.00 Build 0)  -->
<!DOCTYPE svg PUBLIC "-//W3C//DTD SVG 1.1//EN" "http://www.w3.org/Graphics/SVG/1.1/DTD/svg11.dtd">
<svg version="1.1" id="Ebene_1" xmlns="http://www.w3.org/2000/svg" xmlns:xlink="http://www.w3.org/1999/xlink" x="0px" y="0px"
	 width="192.965px" height="91.258px" viewBox="0 0 192.965 91.258" enable-background="new 0 0 192.965 91.258"
	 xml:space="preserve">
<g id="backcolor">
	<path fill="#43AB38" d="M179.541,39.713c-1.814,0-13.228-0.313-14.021-0.313c-3.644,0-4.644-0.007-4.644-0.007
		c4.037-8.593,9.87-20.006-0.036-25.415c-5.554-3.031-12.494-0.929-17.59,2.022c-6.137,3.552-11.441,8.439-16.216,13.638
		c-4.21-20.62-25.336-33.427-45.508-28.634c-4.864,1.2-9.392,3.36-13.413,6.335c-1.964,1.452-5.448,4.636-7.099,6.55
		c-1.003,1.163-1.687,2.13-2.625,2.489c-2.788,1.067-3.902,1.461-6.958,1.218c0,0-0.885,1.96-1.063,2.322
		c-4.327-5.367-13.591-7.063-20.041-5.154c-7.321,2.165-12.265,8.654-12.844,16.214C11.015,29.89,5.41,34.082,2.628,39.67
		c-3.11,6.254-4.461,14.992,1.699,21.152l5.906,5.859h5.812c0.891-0.575,1.729-1.045,2.264-1.05
		c5.903-0.048,155.198,16.521,173.073-9.757C195.908,49.221,190.353,39.713,179.541,39.713z"/>
</g>
<g id="backcolor_1_">
	<path id="frontcolor" fill="#1C5A29" d="M184.648,65.644c0.988-1.271,6.733-9.758,6.733-9.758l-10.144-10.144l-4.863,0.184
		l-1.385-1.138l-3.547,2.449l-0.266,0.041c0,0-7.432-7.518-8.034-7.879c0,0-1.591-0.005-2.123-0.005c0,0,3.858-8.313,4.434-11.063
		l-6.809-7.318l-9.802-0.829l-15.366,12.885l-1.856,5.538L109.156,16.1L79.13,10.496l-13.964,16.2l-3.951-3.964l-8.731,10.09
		L42.147,22.502l-9.841-1.476l-6.966,7.103l5.788,23.128L18.535,38.346L7.566,43.343l1.259,14.3l7.843,7.989l81.044,0.006
		l-0.51,2.098H46.956H18.386h-7.091c2.884,2.884,5.447,4.678,9.132,4.678c0.035,0,0.927,0,2.472-0.001
		c0.046,0,0.097-0.001,0.147-0.002c0,0,0.003,0.003,0.003,0.003c0.07,0,58.436,0.03,58.436,0.03l8.477,11.731l8.587-11.762
		c0-0.007,75.572,0,75.913,0c3.685,0,6.91-1.861,8.86-4.678H99.423l1.276-2.098L184.648,65.644z"/>
	<path fill="#1C5A29" d="M81.811,69.847h-0.139c2.544,4.165,5.649,9.176,8.041,13.025c3.098-4.983,7.37-11.884,10.095-16.404
		c0.899-1.494,1.932-3.136,3.025-4.874c2.868-4.56,6.119-9.727,8.287-14.33l0.019-0.039l0.019-0.038
		c0.311-0.628,0.61-1.312,0.915-2.092l0.006-0.015l0.006-0.015c0.57-1.429,1.528-4.422,1.528-8.405
		c0-13.12-10.702-23.796-23.857-23.796h-0.046h-0.04c-13.154,0-23.856,10.676-23.856,23.796c0,3.993,0.959,6.974,1.531,8.396
		l0.009,0.021l0.009,0.021c0.308,0.789,0.604,1.469,0.908,2.078l0.022,0.044l0.021,0.045c2.165,4.604,5.416,9.772,8.284,14.332
		c1.093,1.737,2.125,3.378,3.025,4.873c0.243,0.403,0.502,0.831,0.768,1.27h1.422V69.847z"/>
</g>
<g id="shadow_x5F_logo">
	<path fill="#C6C5C4" d="M80.389,67.741h-5.183c0.212,0.346,0.419,0.686,0.618,1.016c0.21,0.35,0.432,0.716,0.66,1.091h5.188
		C81.224,69.115,80.794,68.41,80.389,67.741z"/>
</g>
<g id="line">
	<path fill="#FFFFFF" d="M184.654,65.636h-84.295l-1.281,2.092h84.258C183.335,67.728,184.51,65.824,184.654,65.636z"/>
	<polygon fill="#FFFFFF" points="9.18,65.636 11.288,67.728 97.739,67.728 99.078,65.636 	"/>
</g>
<g id="shadow_x5F_font">
	<polygon fill="#C6C5C4" points="148.188,67.764 150.29,65.667 152.386,67.764 	"/>
	<polygon fill="#C6C5C4" points="163.794,67.741 165.896,65.639 167.994,67.741 	"/>
	<g>
		<polygon fill="#C6C5C4" points="103.427,67.741 105.527,65.644 107.626,67.741 		"/>
	</g>
</g>
<g id="font">
	<path fill="#FFFFFF" d="M35.77,33.724c0.747,2.148,3.101,2.998,5.182,2.295c2.137-0.722,3.542-2.548,4.224-4.64
		c1.696-5.198-1.931-9.411-6.837-10.588c-11.216-2.69-18.509,9.014-13.783,18.668c2.116,4.32,6.343,7.876,5.838,13.119
		c-0.49,5.076-5.348,8.703-10.308,8.439C7.724,60.36,11.17,43.411,19.021,38.955c-3.003-4.065-8.575-0.724-10.663,2.396
		c-2.716,4.062-3.307,9.762-0.958,14.115c4.908,9.088,18.093,9.803,24.923,2.624c3.501-3.68,4.986-8.646,3.51-13.577
		c-1.513-5.021-6.327-8.206-6.6-13.735c-0.227-4.645,4.157-10.358,9.28-7.65C43.172,25.446,38.833,32.122,35.77,33.724
		C36.073,34.592,37.512,32.813,35.77,33.724z"/>
	<path fill="#FFFFFF" d="M46.17,52.948c4.946-10.069,9.894-20.144,14.843-30.214c-1.945,0.753-4.092,1.193-6.175,1.271
		c-0.955,0.037-1.21-0.296-1.588,0.47c-0.785,1.596-1.566,3.189-2.349,4.785c-2.285,4.64-4.563,9.279-6.843,13.922
		c-2.19,4.454-5.441,9.136-6.198,14.025c-0.761,5.175,4.451,6.529,8.37,4.568c4.372-2.19,7.244-6.646,9.876-10.588
		c-0.386-0.229-0.772-0.453-1.161-0.683c-0.821-0.48-1.387,1.383-1.821,2.041c-1.135,1.722-2.386,3.429-3.948,4.788
		c-0.792,0.686-3.379,2.914-4.465,1.447C43.681,57.393,45.572,54.166,46.17,52.948z"/>
	<path fill="#FFFFFF" d="M145.248,60.492c-1.254-2.844,0.953-6.108,2.174-8.675c1.432-3.003,2.861-6.009,4.29-9.012
		c1.529-3.214,3.059-6.432,4.592-9.645c1.214-2.553,2.624-5.123,3.021-7.954c1.12-7.99-7.961-7-12.694-4.561
		c-6.348,3.276-11.76,8.393-16.529,13.641c-3.851,4.24-7.154,8.817-10.129,13.698c-1.795,2.933-7.459,13.862-0.553,14.714
		c0.946,0.117,1.913-0.089,2.808-0.376c0-0.985,0.131-1.966,0.337-2.929c0.543-2.55,1.563-4.982,2.661-7.337
		c0.371-0.801,1.364-3.963,2.266-4.007c0.799-0.042,1.595-0.082,2.392-0.121c4.25-0.216,8.5-0.431,12.75-0.646
		c-0.92,1.864-1.882,3.711-2.751,5.599c-0.908,1.968-2.182,4.808-0.607,6.788C140.633,61.377,143.421,61.067,145.248,60.492
		C144.897,59.703,143.851,60.931,145.248,60.492z M129.032,44.926c3.026-5.003,6.496-9.748,10.359-14.133
		c3.101-3.521,6.854-7.847,11.302-9.669c6.002-2.456,1.435,6.507,0.495,8.444c-0.836,1.719-1.667,3.436-2.498,5.152
		c-1.289,2.652-2.576,5.308-3.863,7.963c-0.598,1.232-0.591,2.242-1.971,2.242C138.249,44.926,133.642,44.926,129.032,44.926z"/>
	<path fill="#FFFFFF" d="M184.508,54.13c-1.067,2.202-3.256,4.554-5.944,4.248c2.259-2.859,4.895-7.974,3.196-11.663
		c-2.021-4.39-6.779-0.685-8.732,1.572c-0.18-0.615,1.639-2.603,1.962-3.499c-1.387,0.442-2.988,0.875-4.452,0.664
		c-0.155,0.111-0.277,0.625-0.35,0.789c-0.695,1.572-1.391,3.145-2.087,4.713c-0.783,1.776-1.567,3.553-2.354,5.326
		c-0.653,1.478-0.733,2.326-2.728,2.098c2.202-2.954,4.918-7.898,3.188-11.663c-2.013-4.393-6.779-0.683-8.732,1.572
		c-0.18-0.615,1.644-2.609,1.971-3.499c-0.779,0.243-4.355,0.425-4.563,0.892c-0.316,0.719-0.633,1.437-0.952,2.154
		c-1.195,2.708-2.394,5.419-3.592,8.13c-1.972,4.46-3.944,8.924-5.918,13.386c0.598-0.161,4.358-0.266,4.465-0.51
		c0.323-0.722,0.646-1.441,0.97-2.161c0.757-1.692,1.513-3.382,2.268-5.072c1.854,1.126,4.066,1.201,6.077,0.462
		c0.882-0.324,1.704-0.796,2.45-1.36c0.41-0.311,0.798-0.643,1.165-1.001c0.83,0.115,1.675,0.047,2.485-0.155
		c-1.446,3.264-2.891,6.534-4.337,9.798c0.598-0.159,4.358-0.264,4.47-0.51c0.323-0.722,0.648-1.441,0.972-2.161
		c0.76-1.692,1.522-3.382,2.284-5.072c1.637,1.011,3.578,1.18,5.417,0.667c0.883-0.246,1.721-0.645,2.489-1.146
		c0.414-0.271,0.811-0.57,1.188-0.895c0.811-0.694,1.01-0.402,2.024-0.489c1.78-0.153,3.459-1.027,4.706-2.292
		c0.613-0.62,1.139-1.329,1.597-2.073C185.647,54.507,185.249,54.611,184.508,54.13z M160.93,54.791
		c-1.315,2.409-4.936,7.57-8.314,5.798c1.298-2.895,2.482-5.88,3.973-8.682c0.778-1.466,3.578-6.547,5.901-5.041
		C164.548,48.202,161.645,53.451,160.93,54.791C160.208,56.115,162.188,52.429,160.93,54.791z M176.478,54.791
		c-1.322,2.4-4.937,7.578-8.314,5.798c1.293-2.895,2.48-5.88,3.969-8.682c0.775-1.458,3.588-6.561,5.904-5.041
		C180.083,48.212,177.191,53.444,176.478,54.791C175.747,56.115,177.727,52.429,176.478,54.791z"/>
</g>
<g id="logo">
	<path fill-rule="evenodd" clip-rule="evenodd" fill="#FFFFFF" d="M82.764,20.018c1.315-1.341,2.424-0.537,3.736,0.233
		c1.606,0.971,4.056,0.143,5.875,0.803c1.766,0.673,1.21,3.755,1.178,5.265c-0.014,0.728,0.621,1.588-0.005,2.147
		c-0.775,0.72-0.125,1.88,0.126,2.681c0.672,2.135,1.429,4.181,1.938,6.361c0.488,2.092,0.63,4.304,1.499,6.292
		c0.743,1.692,0.855,3.156,1.344,4.984c0.539,2.025,1.221,3.898,1.265,6.014c0.042,2.018,0.099,3.036-1.158,4.628
		c-0.633-0.314-0.773-0.504-1.459-0.817c-0.726-0.331-2.055,1.313-3.479,2.597c-0.789,0.71-1.854,1.033-2.769,1.572
		c-1.474,0.866-1.21,0.661-0.813,2.169c0.355,1.359-0.14,1.135-2.055,1.061c-2.214-0.086-1.347-1.81-0.934-3.478
		c0.226-0.922,0.751-1.571,0.735-2.58c-0.021-1.081,0.11-2.162,0.395-3.204c0.546-1.984,2.066-3.979,1.337-6.137
		c-0.277-0.822-0.753-1.611-1.053-2.438c-0.273-0.757-0.407-2.518-1.285-2.027c0.065-0.911,0.154-1.558,0.406-2.44
		c0.378-1.331-0.364-1.226-0.733-2.142c-1.139-2.839-2.358,0.431-3.106,1.589c-0.233,0.361-0.808,0.317-0.982,0.633
		c-0.204,0.366-0.044,1.894-0.007,2.337c0.14,1.588,1.646,3.433,2.461,4.731c-0.724,0.182-0.869-0.285-1.163-0.799
		c-0.472,0.548,0.028,1.266-0.166,1.882c-0.281-0.48-0.391-0.687-0.535-1.261c-0.437,0.547,0.192,1.178-0.369,1.729
		c-0.028-0.112-0.185-1.019-0.336-1.019c-0.019,0.317-0.04,0.638-0.061,0.957c-0.388,0.115-0.532-0.158-0.439-0.817
		c-0.084,0.21-0.22,0.278-0.402,0.201c0.056-0.861,0.271-1.845,0.234-2.699c-0.033-0.701-0.885-1.621-1.247-2.195
		c-0.918-1.462-0.731-3.003-0.407-4.614c0.682-3.377,2.849-6.688,4.462-9.677c0.04,0.145,0.084,0.289,0.129,0.434
		c0.033-0.564,0.07-1.132,0.112-1.699c-0.201-0.015-0.341,0.621-0.393,0.752c-0.004-0.28-0.009-0.557-0.019-0.837
		c-0.238,0.262-0.479,0.523-0.717,0.79c0.101-0.294,0.203-0.584,0.306-0.878c-0.28-0.191-0.473,0.004-0.579,0.588
		c-0.117-0.505-0.407-1.275-0.5-2.214c-0.521,1.327-0.916-0.885-0.49-1.294c0.62-0.564,0.815-2.186,1.316-2.979
		c1.621-2.564,5.208-1.063,5.964,1.288c0.532-0.78,0.625-1.266,0.668-2.237c0.053-1.195-1.434-1.48-2.457-1.896
		c-0.705-0.285-1.726-0.743-2.386-0.084c-0.481,0.467-2.602-0.024-3.22-0.066c0.325-0.858,0.854-0.457,1.508-0.625
		c-0.332-0.738-1.072-0.701-1.67-0.313C82.117,20.686,82.338,20.448,82.764,20.018C83.387,19.382,82.175,20.616,82.764,20.018z
		 M92.753,54.359c-0.794,0.421-0.826,2.284-1.167,3.041c-0.596,1.326-1.481,2.524-2.151,3.82c0.25,0.151,3.246-3.47,3.862-3.941
		c1.829-1.406,1.457-2.71,1.604-4.909C94.841,52.363,93.267,54.083,92.753,54.359C92.506,54.49,93.622,53.892,92.753,54.359z"/>
	<path fill="#FFFFFF" d="M89.755,8.433c-0.014,0-0.028,0-0.046,0c-0.007,0-0.023,0-0.04,0c-15.625,0-28.288,12.634-28.288,28.228
		c0,4.263,0.927,7.751,1.852,10.049c0.322,0.827,0.677,1.654,1.069,2.442c2.937,6.246,7.663,13.305,10.904,18.589h5.183
		c-0.266-0.438-0.525-0.866-0.768-1.27c-0.9-1.495-1.932-3.136-3.025-4.873c-2.868-4.56-6.119-9.728-8.284-14.332l-0.021-0.045
		l-0.022-0.044c-0.304-0.609-0.601-1.289-0.908-2.078l-0.009-0.021l-0.009-0.021c-0.572-1.422-1.531-4.402-1.531-8.396
		c0-13.12,10.702-23.796,23.856-23.796h0.04h0.046c13.155,0,23.857,10.676,23.857,23.796c0,3.983-0.958,6.977-1.528,8.405
		l-0.006,0.015l-0.006,0.015c-0.305,0.78-0.604,1.464-0.915,2.092l-0.019,0.038l-0.019,0.039c-2.168,4.604-5.419,9.771-8.287,14.33
		c-1.094,1.738-2.126,3.38-3.025,4.874c-2.726,4.521-6.997,11.421-10.095,16.404c-2.392-3.85-5.496-8.86-8.041-13.025h-5.188
		c4.563,7.53,12.28,19.881,13.226,21.411c1.004-1.606,9.457-15.144,13.895-22.502c3.232-5.371,8.393-12.949,11.526-19.604
		c0.39-0.788,0.743-1.606,1.069-2.442c0.918-2.298,1.845-5.786,1.845-10.049C118.043,21.067,105.382,8.433,89.755,8.433z"/>
</g>
</svg>
