<?xml version="1.0" encoding="utf-8"?>
<!-- Generator: Adobe Illustrator 16.0.0, SVG Export Plug-In . SVG Version: 6.00 Build 0)  -->
<!DOCTYPE svg PUBLIC "-//W3C//DTD SVG 1.1//EN" "http://www.w3.org/Graphics/SVG/1.1/DTD/svg11.dtd">
<svg version="1.1" id="Ebene_1" xmlns="http://www.w3.org/2000/svg" xmlns:xlink="http://www.w3.org/1999/xlink" x="0px" y="0px"
	 width="57.064px" height="83.876px" viewBox="0 0 57.064 83.876" enable-background="new 0 0 57.064 83.876" xml:space="preserve">
<polygon fill="#195A19" points="28.528,78.886 1.769,35.302 8.019,11.917 28.803,3.278 48.019,10.636 56.222,35.302 "/>
<g id="shadow_x5F_logo_1_">
	<path fill="#C6C6C5" d="M19.204,60.358h-5.183c0.212,0.346,0.419,0.686,0.618,1.016c0.209,0.35,0.432,0.717,0.659,1.092h5.188
		C20.04,61.733,19.61,61.028,19.204,60.358z"/>
</g>
<path fill="#FFFFFF" d="M44.343,58.255h-5.168l-1.281,2.092h5.131C43.024,60.347,44.199,58.442,44.343,58.255z"/>
<polygon fill="#FFFFFF" points="12.968,58.255 15.075,60.347 36.556,60.347 37.894,58.255 "/>
<g id="logo_1_">
	<path fill-rule="evenodd" clip-rule="evenodd" fill="#FFFFFF" d="M21.579,12.636c1.315-1.34,2.424-0.537,3.736,0.234
		c1.607,0.971,4.057,0.143,5.875,0.803c1.766,0.672,1.21,3.754,1.178,5.264c-0.014,0.729,0.621,1.588-0.005,2.148
		c-0.774,0.719-0.126,1.879,0.126,2.68c0.673,2.135,1.43,4.182,1.938,6.361c0.488,2.092,0.63,4.305,1.499,6.293
		c0.742,1.691,0.855,3.156,1.344,4.984c0.539,2.025,1.221,3.898,1.265,6.014c0.042,2.018,0.099,3.035-1.158,4.627
		c-0.634-0.314-0.772-0.504-1.46-0.816c-0.726-0.332-2.055,1.313-3.479,2.596c-0.789,0.711-1.854,1.033-2.77,1.572
		c-1.475,0.867-1.21,0.662-0.813,2.17c0.354,1.359-0.141,1.135-2.056,1.061c-2.214-0.086-1.347-1.811-0.934-3.479
		c0.226-0.922,0.751-1.57,0.735-2.58c-0.021-1.08,0.109-2.162,0.395-3.203c0.547-1.984,2.066-3.979,1.338-6.137
		c-0.277-0.822-0.754-1.611-1.053-2.438c-0.273-0.758-0.406-2.518-1.285-2.027c0.066-0.912,0.154-1.559,0.406-2.441
		c0.379-1.33-0.363-1.225-0.732-2.141c-1.14-2.84-2.358,0.43-3.106,1.588c-0.233,0.361-0.808,0.318-0.982,0.633
		c-0.204,0.367-0.044,1.895-0.007,2.338c0.14,1.588,1.646,3.432,2.461,4.73c-0.724,0.182-0.869-0.285-1.163-0.799
		c-0.472,0.549,0.028,1.266-0.165,1.883c-0.281-0.48-0.391-0.688-0.535-1.262c-0.438,0.547,0.191,1.178-0.369,1.729
		c-0.028-0.111-0.185-1.018-0.336-1.018c-0.02,0.316-0.04,0.637-0.061,0.957c-0.389,0.115-0.533-0.158-0.439-0.818
		c-0.084,0.211-0.22,0.279-0.402,0.201c0.057-0.861,0.271-1.844,0.234-2.699c-0.033-0.701-0.885-1.621-1.247-2.195
		c-0.919-1.461-0.731-3.002-0.407-4.613c0.682-3.377,2.85-6.689,4.463-9.678c0.04,0.145,0.084,0.289,0.129,0.434
		c0.033-0.564,0.07-1.131,0.112-1.699c-0.201-0.014-0.341,0.621-0.394,0.752c-0.004-0.279-0.009-0.557-0.018-0.836
		c-0.238,0.262-0.479,0.523-0.717,0.789c0.1-0.293,0.203-0.584,0.305-0.877c-0.279-0.191-0.473,0.004-0.578,0.588
		c-0.117-0.506-0.406-1.275-0.5-2.215c-0.521,1.328-0.915-0.885-0.49-1.293c0.621-0.564,0.815-2.186,1.316-2.979
		c1.621-2.564,5.208-1.064,5.965,1.287c0.532-0.779,0.625-1.266,0.668-2.236c0.053-1.195-1.434-1.48-2.457-1.896
		c-0.705-0.285-1.726-0.742-2.387-0.084c-0.48,0.467-2.602-0.023-3.22-0.066c0.325-0.857,0.854-0.457,1.509-0.625
		c-0.332-0.738-1.072-0.701-1.67-0.313C20.933,13.304,21.154,13.065,21.579,12.636C22.202,12.001,20.991,13.233,21.579,12.636z
		 M31.569,46.978c-0.794,0.42-0.826,2.283-1.168,3.041c-0.596,1.326-1.48,2.523-2.15,3.82c0.25,0.15,3.246-3.471,3.862-3.941
		c1.829-1.406,1.457-2.711,1.604-4.91C33.657,44.981,32.083,46.702,31.569,46.978C31.321,47.108,32.438,46.511,31.569,46.978z"/>
	<path fill="#FFFFFF" d="M28.571,1.052c-0.015,0-0.028,0-0.047,0c-0.008,0-0.023,0-0.04,0c-15.624,0-28.288,12.633-28.288,28.227
		c0,4.264,0.927,7.752,1.852,10.049c0.322,0.828,0.677,1.654,1.069,2.443c2.937,6.246,7.663,13.305,10.904,18.588h5.183
		c-0.266-0.438-0.525-0.865-0.768-1.27c-0.9-1.494-1.932-3.135-3.025-4.873c-2.867-4.559-6.119-9.727-8.283-14.332l-0.021-0.045
		l-0.021-0.043c-0.304-0.609-0.601-1.289-0.908-2.078l-0.009-0.021l-0.009-0.021c-0.572-1.422-1.531-4.402-1.531-8.396
		c0-13.119,10.702-23.795,23.856-23.795h0.04h0.047c13.154,0,23.856,10.676,23.856,23.795c0,3.984-0.958,6.977-1.528,8.406
		l-0.006,0.014l-0.006,0.016c-0.305,0.779-0.604,1.463-0.915,2.092l-0.019,0.037l-0.019,0.039c-2.168,4.604-5.419,9.771-8.287,14.33
		c-1.094,1.738-2.126,3.381-3.025,4.875c-2.726,4.52-6.997,11.42-10.095,16.404c-2.393-3.85-5.496-8.861-8.041-13.025h-5.188
		c4.563,7.529,12.28,19.881,13.226,21.41c1.004-1.605,9.457-15.143,13.895-22.502c3.232-5.371,8.393-12.949,11.526-19.604
		c0.39-0.789,0.743-1.607,1.069-2.443c0.918-2.297,1.845-5.785,1.845-10.049C56.859,13.685,44.198,1.052,28.571,1.052z"/>
</g>
</svg>
