<?xml version="1.0" encoding="utf-8"?>
<!-- Generator: Adobe Illustrator 16.0.0, SVG Export Plug-In . SVG Version: 6.00 Build 0)  -->
<!DOCTYPE svg PUBLIC "-//W3C//DTD SVG 1.1//EN" "http://www.w3.org/Graphics/SVG/1.1/DTD/svg11.dtd">
<svg version="1.1" id="Ebene_1" xmlns="http://www.w3.org/2000/svg" xmlns:xlink="http://www.w3.org/1999/xlink" x="0px" y="0px"
	 width="161.575px" height="235.275px" viewBox="0 0 161.575 235.275" enable-background="new 0 0 161.575 235.275"
	 xml:space="preserve">
<polygon fill="#195A19" points="157.157,100.966 134.476,32.763 81.345,12.419 23.876,36.306 6.594,100.966 49.133,170.249 
	113.136,170.249 "/>
<polygon fill-rule="evenodd" clip-rule="evenodd" fill="#64ADE6" points="157.857,93.461 133.472,93.802 118.204,93.802 
	83.6,93.802 33.985,93.802 6.731,93.802 53.47,184.329 67.182,212.376 68.491,210.86 80.751,232.521 "/>
<g id="shadow_x5F_logo_5_">
	<path fill="#C6C6C5" d="M54.804,170.249h-14.33c0.586,0.956,1.159,1.895,1.71,2.807c0.577,0.968,1.193,1.984,1.822,3.02h14.346
		C57.116,174.05,55.928,172.103,54.804,170.249z"/>
</g>
<polygon fill="#FFFFFF" points="37.561,164.433 43.387,170.215 102.781,170.215 106.48,164.433 "/>
<path fill-rule="evenodd" clip-rule="evenodd" fill="#FFFFFF" d="M61.371,38.293c3.637-3.705,6.701-1.485,10.331,0.648
	c4.444,2.684,11.218,0.394,16.243,2.219c4.882,1.858,3.346,10.38,3.256,14.554c-0.038,2.015,1.719,4.391-0.012,5.941
	c-2.143,1.987-0.35,5.195,0.347,7.409c1.861,5.903,3.954,11.563,5.36,17.59c1.352,5.784,1.741,11.903,4.145,17.4
	c2.053,4.677,2.367,8.728,3.716,13.782c1.491,5.6,3.376,10.779,3.498,16.628c0.115,5.579,0.271,8.392-3.204,12.794
	c-1.752-0.869-2.135-1.393-4.037-2.257c-2.007-0.918-5.68,3.63-9.617,7.176c-2.183,1.967-5.128,2.858-7.657,4.349
	c-4.077,2.397-3.345,1.83-2.247,5.999c0.98,3.759-0.389,3.139-5.684,2.934c-6.121-0.237-3.724-5.007-2.582-9.619
	c0.624-2.549,2.077-4.343,2.033-7.135c-0.06-2.984,0.303-5.978,1.091-8.856c1.512-5.486,5.714-11.001,3.699-16.968
	c-0.767-2.273-2.085-4.456-2.911-6.74c-0.756-2.096-1.124-6.96-3.554-5.605c0.184-2.522,0.426-4.31,1.123-6.75
	c1.047-3.678-1.004-3.386-2.025-5.919c-3.151-7.852-6.521,1.188-8.589,4.391c-0.646,0.999-2.234,0.88-2.716,1.75
	c-0.564,1.015-0.122,5.238-0.019,6.464c0.386,4.391,4.552,9.489,6.805,13.08c-2.001,0.503-2.403-0.788-3.216-2.209
	c-1.305,1.517,0.078,3.5-0.457,5.205c-0.778-1.327-1.08-1.9-1.48-3.487c-1.21,1.512,0.53,3.256-1.021,4.779
	c-0.079-0.308-0.51-2.814-0.929-2.814c-0.053,0.876-0.11,1.762-0.167,2.647c-1.075,0.318-1.474-0.438-1.216-2.263
	c-0.231,0.582-0.607,0.771-1.112,0.556c0.157-2.382,0.751-5.099,0.648-7.463c-0.092-1.939-2.446-4.483-3.448-6.071
	c-2.541-4.039-2.022-8.3-1.126-12.756c1.885-9.337,7.879-18.497,12.34-26.759c0.111,0.399,0.233,0.799,0.356,1.199
	c0.092-1.561,0.195-3.127,0.311-4.699c-0.556-0.038-0.942,1.718-1.088,2.08c-0.011-0.773-0.025-1.54-0.048-2.312
	c-0.66,0.724-1.323,1.448-1.982,2.182c0.275-0.811,0.562-1.615,0.843-2.425c-0.772-0.529-1.307,0.011-1.599,1.625
	c-0.324-1.399-1.124-3.527-1.382-6.124c-1.439,3.672-2.53-2.446-1.355-3.575c1.718-1.561,2.255-6.043,3.64-8.236
	c4.483-7.091,14.401-2.943,16.494,3.559c1.471-2.155,1.728-3.499,1.847-6.183c0.146-3.305-3.964-4.094-6.794-5.244
	c-1.95-0.788-4.771-2.052-6.6-0.232c-1.328,1.291-7.193-0.064-8.903-0.184c0.899-2.37,2.364-1.264,4.172-1.728
	c-0.918-2.042-2.965-1.939-4.617-0.864C59.583,40.14,60.196,39.481,61.371,38.293C63.094,36.538,59.746,39.945,61.371,38.293z
	 M88.994,133.249c-2.197,1.163-2.284,6.313-3.23,8.409c-1.646,3.668-4.092,6.978-5.944,10.563
	c0.691,0.417,8.974-9.597,10.678-10.897c5.059-3.89,4.028-7.496,4.438-13.576C94.767,127.73,90.413,132.488,88.994,133.249
	C88.308,133.613,91.396,131.958,88.994,133.249z"/>
<path fill="#FFFFFF" d="M80.705,6.263c-0.04,0-0.079,0-0.129,0c-0.021,0-0.065,0-0.111,0c-43.201,0-78.218,34.93-78.218,78.048
	c0,11.789,2.563,21.434,5.12,27.785c0.89,2.29,1.871,4.574,2.956,6.756c8.12,17.27,21.189,36.789,30.151,51.397h14.33
	c-0.734-1.21-1.453-2.394-2.123-3.51c-2.489-4.133-5.341-8.669-8.365-13.475c-7.928-12.605-16.92-26.896-22.904-39.629l-0.059-0.125
	l-0.059-0.118c-0.84-1.685-1.661-3.565-2.512-5.747l-0.024-0.059l-0.024-0.06c-1.583-3.932-4.234-12.173-4.234-23.216
	c0-36.275,29.592-65.794,65.964-65.794h0.111h0.129c36.372,0,65.963,29.519,65.963,65.794c0,11.017-2.648,19.29-4.225,23.244
	l-0.019,0.037l-0.015,0.044c-0.844,2.154-1.672,4.044-2.531,5.784l-0.05,0.103l-0.053,0.108
	c-5.994,12.729-14.982,27.018-22.913,39.623c-3.025,4.806-5.879,9.348-8.366,13.48c-7.537,12.496-19.347,31.576-27.911,45.357
	c-6.616-10.645-15.197-24.502-22.234-36.016H44.006c12.618,20.819,33.955,54.973,36.569,59.2
	c2.775-4.438,26.147-41.868,38.417-62.22c8.939-14.851,23.207-35.803,31.872-54.204c1.077-2.182,2.055-4.445,2.957-6.756
	c2.538-6.351,5.1-15.997,5.1-27.785C158.921,41.193,123.913,6.263,80.705,6.263z"/>
</svg>
